<?xml version="1.0" encoding="UTF-8"?>
<svg xmlns="http://www.w3.org/2000/svg" xmlns:xlink="http://www.w3.org/1999/xlink" width="497px" height="90px" viewBox="0 0 496 90" version="1.1">
<g id="surface1">
<path style=" stroke:none;fill-rule:nonzero;fill:rgb(1.176471%,1.176471%,1.176471%);fill-opacity:1;" d="M 91.847656 2.273438 C 87.851562 0.09375 82.945312 1.753906 80.890625 5.96875 L 51.535156 69.257812 C 50.847656 70.621094 50.257812 71.554688 48.695312 71.554688 C 47.136719 71.554688 46.535156 70.621094 45.859375 69.257812 L 16.515625 5.957031 C 14.457031 1.742188 9.550781 0.09375 5.554688 2.261719 C 1.5625 4.441406 0 9.613281 2.058594 13.816406 L 30.726562 72.394531 L 33.988281 79.046875 C 36.839844 84.886719 42.476562 88.507812 48.707031 88.507812 C 54.925781 88.507812 60.566406 84.886719 63.425781 79.046875 L 66.691406 72.394531 L 95.359375 13.816406 C 97.40625 9.625 95.832031 4.453125 91.847656 2.273438 Z M 481.339844 1.316406 C 475.820312 1.289062 470.984375 4.746094 468.667969 9.496094 C 461.207031 24.730469 439.277344 70.0625 439.179688 70.21875 C 439.015625 70.5 438.554688 71.554688 437.609375 71.554688 C 436.722656 71.554688 436.203125 70.558594 436.035156 70.203125 C 428.765625 55.15625 414.425781 25.441406 406.894531 10.0625 C 403.996094 4.132812 399.136719 1.300781 393.890625 1.300781 L 393.878906 1.300781 C 385.800781 1.300781 379.265625 8.132812 379.265625 17.425781 L 379.265625 79.734375 C 379.265625 83.523438 381.429688 87.027344 384.75 88.128906 C 390.164062 89.90625 394.8125 85.167969 394.8125 79.570312 L 393.675781 18.835938 C 393.675781 18.207031 394.433594 17.984375 394.71875 18.527344 L 424.664062 79.226562 C 427.441406 85.039062 432.265625 88.507812 437.609375 88.507812 C 442.941406 88.507812 447.765625 85.039062 450.554688 79.226562 L 480.511719 18.539062 C 480.808594 17.972656 481.589844 18.195312 481.589844 18.859375 L 480.441406 79.9375 C 480.441406 84.765625 484.046875 88.660156 488.457031 88.507812 C 492.714844 88.367188 495.988281 84.269531 495.988281 79.570312 L 495.988281 17.449219 C 496 8.0625 489.4375 1.351562 481.339844 1.316406 Z M 369.320312 75.851562 L 336.324219 10.667969 C 333.464844 4.867188 327.835938 1.265625 321.640625 1.265625 C 317.753906 1.265625 314.097656 2.675781 311.203125 5.164062 C 309.417969 6.691406 307.964844 8.566406 306.933594 10.679688 L 274.105469 75.554688 C 274.070312 75.628906 274.042969 75.699219 274.007812 75.757812 L 273.960938 75.851562 C 272.488281 78.792969 272.738281 82.304688 274.613281 85.003906 C 274.660156 85.074219 274.707031 85.132812 274.753906 85.203125 C 274.800781 85.277344 274.859375 85.347656 274.917969 85.417969 C 275.511719 86.1875 276.21875 86.851562 277.082031 87.371094 C 279.863281 89.050781 283.148438 88.804688 285.632812 87.074219 C 285.667969 87.050781 285.703125 87.027344 285.726562 87.003906 C 285.902344 86.875 286.082031 86.742188 286.246094 86.601562 C 286.386719 86.484375 286.519531 86.351562 286.648438 86.222656 C 286.707031 86.164062 286.765625 86.117188 286.824219 86.058594 C 287.417969 85.453125 287.925781 84.753906 288.328125 83.949219 L 289.542969 81.367188 L 296.414062 66.949219 C 296.589844 66.582031 296.945312 66.34375 297.335938 66.34375 L 327.671875 66.34375 C 331.726562 66.34375 335.023438 62.863281 335.023438 58.589844 C 335.023438 54.304688 331.726562 50.835938 327.671875 50.835938 L 305.019531 50.835938 C 304.535156 50.835938 304.226562 50.316406 304.40625 49.855469 L 306.09375 46.265625 L 318.496094 21.238281 L 318.542969 21.132812 L 318.617188 20.992188 C 318.617188 20.992188 318.617188 21.003906 318.617188 20.992188 C 318.816406 20.578125 319.480469 18.789062 320.683594 18.421875 C 321.347656 18.21875 322.042969 18.242188 322.515625 18.386719 C 323.769531 18.765625 324.335938 20.316406 324.882812 21.453125 L 354.957031 83.984375 C 356.425781 86.875 359.238281 88.53125 362.144531 88.53125 C 363.066406 88.53125 364.003906 88.355469 364.914062 88.011719 C 364.972656 87.988281 365.03125 87.976562 365.078125 87.953125 C 365.300781 87.855469 365.515625 87.75 365.726562 87.632812 C 365.8125 87.597656 365.894531 87.5625 365.964844 87.511719 C 366.011719 87.488281 366.046875 87.453125 366.09375 87.429688 C 366.152344 87.394531 366.226562 87.371094 366.285156 87.324219 C 366.378906 87.265625 366.460938 87.195312 366.554688 87.132812 C 366.636719 87.074219 366.710938 87.027344 366.78125 86.96875 C 366.898438 86.875 367.015625 86.792969 367.136719 86.695312 C 367.265625 86.589844 367.394531 86.472656 367.523438 86.351562 C 367.5625 86.316406 367.597656 86.292969 367.621094 86.257812 C 370.316406 83.628906 371.105469 79.378906 369.320312 75.851562 Z M 113.992188 54.351562 L 169.523438 54.351562 C 170.574219 54.339844 179.167969 53.640625 179.167969 43.910156 C 179.179688 19.949219 160.679688 0.449219 137.945312 0.449219 C 115.222656 0.449219 96.730469 19.949219 96.730469 43.921875 C 96.730469 44.46875 96.765625 45.984375 96.765625 46.207031 C 96.730469 73.578125 114.300781 88.308594 137.542969 89.667969 C 138.652344 89.726562 139.742188 89.761719 140.804688 89.761719 C 149.742188 89.761719 157.285156 87.441406 165.480469 82.257812 C 166.320312 81.734375 169.59375 79.546875 172.9375 75.226562 C 175.597656 71.792969 175.835938 66.640625 172.9375 63.964844 C 168.765625 60.105469 164.472656 62.191406 160.644531 65.457031 C 154.625 70.582031 149.96875 74.585938 137.96875 74.597656 C 126.652344 74.597656 115.953125 68.132812 113.414062 55.21875 C 113.320312 54.765625 113.578125 54.351562 113.992188 54.351562 Z M 113.378906 38.3125 C 114.925781 25.761719 123.542969 14.632812 137.921875 14.632812 C 152.296875 14.632812 161.398438 25.535156 162.84375 38.3125 C 162.890625 38.773438 162.59375 39.210938 162.144531 39.210938 L 114.074219 39.210938 C 113.625 39.210938 113.320312 38.785156 113.378906 38.3125 Z M 205.34375 54.351562 L 260.875 54.351562 C 261.925781 54.339844 270.523438 53.640625 270.523438 43.910156 C 270.523438 19.949219 252.019531 0.449219 229.296875 0.449219 C 206.5625 0.449219 188.070312 19.949219 188.070312 43.921875 C 188.070312 44.46875 188.105469 45.984375 188.105469 46.207031 C 188.070312 73.578125 205.640625 88.308594 228.882812 89.667969 C 229.996094 89.726562 231.082031 89.761719 232.144531 89.761719 C 241.082031 89.761719 248.625 87.441406 256.820312 82.257812 C 257.660156 81.734375 260.933594 79.546875 264.28125 75.226562 C 266.941406 71.792969 267.175781 66.640625 264.28125 63.964844 C 260.105469 60.105469 255.816406 62.191406 251.984375 65.457031 C 245.964844 70.582031 241.308594 74.585938 229.308594 74.597656 C 217.996094 74.597656 207.296875 68.132812 204.753906 55.21875 C 204.660156 54.765625 204.917969 54.351562 205.34375 54.351562 Z M 204.71875 38.3125 C 206.265625 25.761719 214.886719 14.632812 229.261719 14.632812 C 243.636719 14.632812 252.742188 25.535156 254.183594 38.3125 C 254.230469 38.773438 253.933594 39.210938 253.484375 39.210938 L 205.402344 39.210938 C 204.964844 39.210938 204.660156 38.785156 204.71875 38.3125 Z M 204.71875 38.3125 "/>
</g>
</svg>
