<svg width="274" height="158" viewBox="0 0 274 158" fill="none" xmlns="http://www.w3.org/2000/svg">
<path fill-rule="evenodd" clip-rule="evenodd" d="M183.829 91.7327C181.042 90.1334 180.55 86.7123 180.55 83.7759V68.3755H175.587V64.2116H180.55V56.7968H185.531V64.2116C188.51 64.2116 191.488 64.2116 194.467 64.2116V68.3755C191.488 68.3755 188.51 68.3755 185.531 68.3755V83.7759C185.531 85.5631 185.845 86.8179 186.472 87.5404C188.074 89.3845 192.591 88.0225 194.485 87.2648V91.5697C191.356 92.7689 186.828 93.453 183.829 91.7327ZM124.383 44V92.0462H119.402L119.402 44H124.383ZM104.273 92.7306C102.828 92.7306 101.326 92.5406 99.7666 92.1606C98.5614 91.8663 97.5378 91.4929 96.6964 91.0397V113.602H91.7149V63.6412H96.6964V67.5361C97.5617 66.8064 98.3854 66.1832 99.1676 65.6659C100.29 64.9246 101.392 64.3827 102.476 64.0406C103.56 63.6982 104.71 63.5272 105.927 63.5272C108.74 63.5272 110.87 64.4021 112.315 66.1508C113.76 67.9001 114.483 70.5621 114.483 74.1361V81.266C114.483 84.9543 113.608 87.7874 111.859 89.7649C110.109 91.7421 107.581 92.7306 104.273 92.7306ZM96.6964 86.9526C97.5612 87.3556 98.4896 87.6846 99.4816 87.9394C100.812 88.2817 102.067 88.4528 103.246 88.4528C105.451 88.4528 107.067 87.8064 108.094 86.5135C109.121 85.2207 109.634 83.2811 109.634 80.6955V74.4215C109.634 72.1398 109.235 70.4667 108.436 69.4023C107.638 68.3374 106.459 67.805 104.9 67.805C103.569 67.805 102.229 68.1946 100.879 68.9744C99.7722 69.6133 98.3777 70.6549 96.6964 72.0991V86.9526ZM203.972 92.7306C201.766 92.7306 200.084 92.0652 198.924 90.7343C197.764 89.4035 197.184 87.464 197.184 84.9166C197.184 82.9392 197.574 81.3229 198.354 80.0682C199.133 78.8133 200.388 77.8439 202.118 77.1592C203.848 76.4751 206.158 76.0184 209.048 75.7903L213.497 75.4118V73.0527C213.497 71.1512 213.117 69.8016 212.356 69.0029C211.596 68.2041 210.265 67.805 208.364 67.805C205.059 67.805 203.281 68.5538 203.281 71.9118C201.621 71.9118 199.96 71.9118 198.3 71.9118C198.3 65.3345 202.42 63.5272 208.535 63.5272C211.843 63.5272 214.305 64.3067 215.921 65.8659C217.537 67.4247 218.479 69.1502 218.479 73.0527V92.0462H213.497V87.8197C212.568 88.7547 211.684 89.5456 210.845 90.1924C209.685 91.0863 208.554 91.7327 207.451 92.132C206.349 92.531 205.189 92.7306 203.972 92.7306ZM213.497 79.1176L208.934 79.4977C206.31 79.7261 204.504 80.2015 203.516 80.9239C202.527 81.6463 202.033 82.8631 202.033 84.5743C202.033 85.8672 202.299 86.837 202.831 87.4833C203.363 88.1297 204.162 88.4528 205.226 88.4528C206.481 88.4528 207.793 88.0249 209.162 87.1695C210.303 86.4562 211.748 85.2345 213.497 83.5039V82.4066V79.1176ZM136.09 92.7306C133.885 92.7306 132.202 92.0652 131.042 90.7343C129.882 89.4035 129.303 87.464 129.303 84.9166C129.303 82.9392 129.692 81.3229 130.472 80.0682C131.251 78.8133 132.506 77.8439 134.236 77.1592C135.966 76.4751 138.276 76.0184 141.166 75.7903L145.616 75.4118V73.0527C145.616 71.1512 145.235 69.8016 144.474 69.0029C143.714 68.2041 142.383 67.805 140.482 67.805C137.177 67.805 135.399 68.5538 135.399 71.9118C133.739 71.9118 132.078 71.9118 130.418 71.9118C130.418 65.3345 134.538 63.5272 140.653 63.5272C143.962 63.5272 146.423 64.3067 148.039 65.8659C149.656 67.4247 150.597 69.1502 150.597 73.0527V92.0462H145.616V87.8197C144.687 88.7547 143.802 89.5456 142.963 90.1924C141.803 91.0863 140.672 91.7327 139.569 92.132C138.466 92.531 137.307 92.7306 136.09 92.7306ZM145.616 79.1176L141.052 79.4977C138.429 79.7261 136.622 80.2015 135.634 80.9239C134.645 81.6463 134.151 82.8631 134.151 84.5743C134.151 85.8672 134.417 86.837 134.949 87.4833C135.482 88.1297 136.28 88.4528 137.345 88.4528C138.6 88.4528 139.912 88.0249 141.28 87.1695C142.422 86.4562 143.866 85.2345 145.616 83.5039V82.4066V79.1176ZM240.871 71.5315C240.741 69.113 238.445 67.805 236.327 67.805C234.844 67.805 233.38 68.2424 231.936 69.1169C230.756 69.8309 229.337 70.9622 227.676 72.5112V92.0462H222.695V64.2116H227.676V68.1123C228.569 67.2477 229.428 66.518 230.253 65.9228C231.412 65.0861 232.572 64.4777 233.732 64.0977C234.892 63.7172 236.118 63.5272 237.411 63.5272C240.149 63.5272 242.24 64.3257 243.685 65.9228C245.52 67.9507 245.853 70.2095 245.853 73.0527V91.4761V92.0462H245.282H241.575H240.871V71.5315ZM261.75 88.4528C264.184 88.4528 265.943 87.8349 267.027 86.599C268.11 85.3632 268.652 83.4906 268.652 80.9809V75.2772C268.652 72.7673 268.11 70.8946 267.027 69.6588C265.943 68.4229 264.184 67.805 261.75 67.805C259.317 67.805 257.559 68.4229 256.474 69.6588C255.391 70.8946 254.849 72.7673 254.849 75.2772V80.9809C254.849 83.4906 255.391 85.3632 256.474 86.599C257.559 87.8349 259.317 88.4528 261.75 88.4528ZM261.75 92.7306C257.91 92.7306 254.992 91.7991 252.995 89.9355C250.999 88.0728 250.001 85.2397 250.001 81.4373V74.8205C250.001 71.0184 250.99 68.1855 252.967 66.3218C254.944 64.459 257.872 63.5272 261.75 63.5272C265.591 63.5272 268.509 64.459 270.506 66.3218C272.502 68.1855 273.5 71.0184 273.5 74.8205V81.4373C273.5 85.2397 272.512 88.0728 270.535 89.9355C268.557 91.7991 265.629 92.7306 261.75 92.7306ZM162.775 91.7327C159.987 90.1334 159.495 86.7123 159.495 83.7759V68.3755H154.533V64.2116H159.495V56.7968H164.477V64.2116C167.455 64.2116 170.434 64.2116 173.412 64.2116V68.3755C170.434 68.3755 167.455 68.3755 164.477 68.3755V83.7759C164.477 85.5631 164.79 86.8179 165.418 87.5404C167.02 89.3845 171.537 88.0225 173.431 87.2648V91.5697C170.302 92.7689 165.773 93.453 162.775 91.7327Z" fill="white"/>
<path fill-rule="evenodd" clip-rule="evenodd" d="M166.75 104.843V106.524H164.108V113.602H162.136V106.524H159.495V104.843H166.75ZM169.614 113.602V104.843H175.529V106.499H171.586V108.218H175.087V109.836H171.586V111.946H175.82V113.602H169.614ZM182.868 113.779C181.444 113.779 180.36 113.383 179.614 112.591C178.868 111.798 178.495 110.674 178.495 109.216C178.495 108.491 178.609 107.845 178.836 107.276C179.064 106.707 179.376 106.227 179.772 105.835C180.168 105.444 180.64 105.147 181.187 104.944C181.735 104.742 182.329 104.641 182.97 104.641C183.34 104.641 183.677 104.668 183.98 104.723C184.284 104.778 184.549 104.841 184.777 104.913C185.004 104.984 185.194 105.058 185.345 105.134C185.497 105.21 185.607 105.269 185.674 105.311L185.105 106.903C184.836 106.76 184.522 106.638 184.164 106.537C183.806 106.435 183.399 106.385 182.944 106.385C182.64 106.385 182.343 106.435 182.053 106.537C181.762 106.638 181.505 106.8 181.282 107.024C181.059 107.247 180.88 107.535 180.745 107.889C180.61 108.243 180.543 108.673 180.543 109.178C180.543 109.583 180.587 109.96 180.675 110.309C180.764 110.659 180.907 110.96 181.105 111.213C181.303 111.466 181.562 111.666 181.882 111.813C182.202 111.961 182.59 112.035 183.046 112.035C183.332 112.035 183.589 112.018 183.816 111.984C184.044 111.95 184.246 111.91 184.422 111.864C184.6 111.818 184.756 111.765 184.89 111.706C185.025 111.647 185.147 111.592 185.257 111.541L185.8 113.121C185.522 113.29 185.131 113.442 184.625 113.576C184.119 113.711 183.534 113.779 182.868 113.779ZM193.948 104.843H195.92V113.602H193.948V109.886H190.637V113.602H188.665V104.843H190.637V108.193H193.948V104.843ZM205.42 113.602C204.855 112.599 204.245 111.609 203.587 110.631C202.93 109.654 202.231 108.731 201.489 107.864V113.602H199.543V104.843H201.148C201.426 105.121 201.734 105.462 202.071 105.867C202.408 106.271 202.751 106.703 203.101 107.163C203.45 107.622 203.798 108.098 204.144 108.591C204.489 109.083 204.813 109.557 205.117 110.012V104.843H207.075V113.602H205.42ZM212.354 109.216C212.354 109.646 212.407 110.033 212.512 110.379C212.618 110.724 212.769 111.021 212.967 111.27C213.165 111.519 213.408 111.71 213.694 111.845C213.981 111.98 214.309 112.047 214.68 112.047C215.042 112.047 215.369 111.98 215.659 111.845C215.95 111.71 216.194 111.519 216.392 111.27C216.59 111.021 216.742 110.724 216.847 110.379C216.953 110.033 217.005 109.646 217.005 109.216C217.005 108.786 216.953 108.397 216.847 108.047C216.742 107.698 216.59 107.398 216.392 107.15C216.194 106.901 215.95 106.709 215.659 106.575C215.369 106.44 215.042 106.373 214.68 106.373C214.309 106.373 213.981 106.442 213.694 106.581C213.408 106.72 213.165 106.914 212.967 107.163C212.769 107.411 212.618 107.71 212.512 108.06C212.407 108.41 212.354 108.795 212.354 109.216ZM219.04 109.216C219.04 109.966 218.929 110.625 218.705 111.194C218.482 111.763 218.176 112.239 217.789 112.622C217.401 113.006 216.94 113.294 216.405 113.488C215.87 113.682 215.295 113.779 214.68 113.779C214.081 113.779 213.517 113.682 212.986 113.488C212.455 113.294 211.992 113.006 211.596 112.622C211.2 112.239 210.888 111.763 210.661 111.194C210.433 110.625 210.32 109.966 210.32 109.216C210.32 108.466 210.438 107.807 210.673 107.238C210.909 106.669 211.227 106.191 211.628 105.804C212.028 105.416 212.491 105.126 213.018 104.932C213.545 104.738 214.098 104.641 214.68 104.641C215.278 104.641 215.842 104.738 216.373 104.932C216.904 105.126 217.367 105.416 217.763 105.804C218.159 106.191 218.472 106.669 218.699 107.238C218.926 107.807 219.04 108.466 219.04 109.216ZM228.136 111.908V113.602H222.284V104.843H224.256V111.908H228.136ZM232.404 109.216C232.404 109.646 232.456 110.033 232.561 110.379C232.667 110.724 232.819 111.021 233.016 111.27C233.215 111.519 233.457 111.71 233.743 111.845C234.03 111.98 234.358 112.047 234.729 112.047C235.092 112.047 235.418 111.98 235.709 111.845C235.999 111.71 236.244 111.519 236.442 111.27C236.639 111.021 236.791 110.724 236.897 110.379C237.002 110.033 237.055 109.646 237.055 109.216C237.055 108.786 237.002 108.397 236.897 108.047C236.791 107.698 236.639 107.398 236.442 107.15C236.244 106.901 235.999 106.709 235.709 106.575C235.418 106.44 235.092 106.373 234.729 106.373C234.358 106.373 234.03 106.442 233.743 106.581C233.457 106.72 233.215 106.914 233.016 107.163C232.819 107.411 232.667 107.71 232.561 108.06C232.456 108.41 232.404 108.795 232.404 109.216ZM239.09 109.216C239.09 109.966 238.978 110.625 238.754 111.194C238.531 111.763 238.226 112.239 237.838 112.622C237.451 113.006 236.989 113.294 236.454 113.488C235.919 113.682 235.344 113.779 234.729 113.779C234.131 113.779 233.566 113.682 233.035 113.488C232.505 113.294 232.041 113.006 231.645 112.622C231.249 112.239 230.938 111.763 230.71 111.194C230.482 110.625 230.369 109.966 230.369 109.216C230.369 108.466 230.487 107.807 230.722 107.238C230.959 106.669 231.276 106.191 231.677 105.804C232.077 105.416 232.541 105.126 233.067 104.932C233.594 104.738 234.148 104.641 234.729 104.641C235.327 104.641 235.892 104.738 236.423 104.932C236.953 105.126 237.417 105.416 237.813 105.804C238.209 106.191 238.521 106.669 238.748 107.238C238.976 107.807 239.09 108.466 239.09 109.216ZM246.606 106.36C245.687 106.36 245.023 106.615 244.614 107.124C244.206 107.634 244.002 108.332 244.002 109.216C244.002 109.646 244.052 110.036 244.153 110.385C244.254 110.735 244.406 111.036 244.608 111.289C244.811 111.541 245.063 111.738 245.366 111.876C245.67 112.015 246.024 112.085 246.428 112.085C246.647 112.085 246.835 112.081 246.991 112.072C247.147 112.064 247.283 112.047 247.401 112.022V108.976H249.373V113.311C249.137 113.404 248.758 113.503 248.236 113.608C247.713 113.713 247.069 113.766 246.302 113.766C245.644 113.766 245.048 113.665 244.514 113.463C243.979 113.26 243.522 112.965 243.142 112.578C242.763 112.191 242.471 111.715 242.264 111.15C242.057 110.585 241.954 109.941 241.954 109.216C241.954 108.483 242.068 107.834 242.296 107.27C242.523 106.705 242.835 106.227 243.231 105.835C243.627 105.444 244.092 105.147 244.627 104.944C245.162 104.742 245.733 104.641 246.34 104.641C246.753 104.641 247.126 104.668 247.458 104.723C247.791 104.778 248.078 104.841 248.317 104.913C248.558 104.984 248.756 105.058 248.912 105.134C249.068 105.21 249.179 105.269 249.247 105.311L248.678 106.891C248.408 106.747 248.099 106.623 247.749 106.518C247.399 106.412 247.018 106.36 246.606 106.36ZM252.807 104.843H254.778V113.602H252.807V104.843ZM258.402 113.602V104.843H264.316V106.499H260.373V108.218H263.874V109.836H260.373V111.946H264.607V113.602H258.402ZM270.05 112.098C270.328 112.098 270.558 112.075 270.739 112.028C270.92 111.982 271.065 111.919 271.175 111.838C271.285 111.759 271.36 111.664 271.403 111.554C271.444 111.445 271.465 111.322 271.465 111.188C271.465 110.901 271.331 110.663 271.061 110.473C270.791 110.284 270.328 110.08 269.671 109.861C269.385 109.759 269.098 109.644 268.811 109.513C268.525 109.383 268.268 109.218 268.04 109.02C267.813 108.822 267.628 108.582 267.484 108.3C267.341 108.018 267.27 107.674 267.27 107.27C267.27 106.865 267.346 106.501 267.497 106.177C267.649 105.852 267.864 105.576 268.142 105.349C268.419 105.121 268.757 104.946 269.153 104.824C269.549 104.702 269.995 104.641 270.493 104.641C271.082 104.641 271.592 104.704 272.021 104.83C272.451 104.957 272.805 105.096 273.083 105.248L272.514 106.802C272.27 106.676 271.998 106.564 271.699 106.467C271.4 106.371 271.04 106.322 270.619 106.322C270.147 106.322 269.807 106.387 269.601 106.518C269.395 106.649 269.292 106.848 269.292 107.118C269.292 107.278 269.33 107.413 269.405 107.523C269.481 107.632 269.589 107.731 269.728 107.82C269.867 107.908 270.027 107.988 270.208 108.06C270.389 108.131 270.589 108.205 270.808 108.281C271.263 108.449 271.659 108.616 271.996 108.78C272.334 108.945 272.614 109.136 272.837 109.355C273.06 109.574 273.227 109.831 273.336 110.126C273.446 110.421 273.5 110.779 273.5 111.2C273.5 112.018 273.214 112.652 272.641 113.103C272.068 113.553 271.204 113.779 270.05 113.779C269.663 113.779 269.313 113.755 269.001 113.709C268.689 113.663 268.413 113.606 268.173 113.539C267.933 113.472 267.727 113.4 267.554 113.324C267.381 113.248 267.236 113.176 267.118 113.109L267.674 111.541C267.935 111.685 268.258 111.813 268.641 111.927C269.024 112.041 269.494 112.098 270.05 112.098Z" fill="#ED6E00"/>
<path fill-rule="evenodd" clip-rule="evenodd" d="M5.98655 82.6674L3.8907 80.0372L0 83.1287L12.5587 98.8907L10.6479 99.1778L11.3882 104.104L35.5903 100.466L37.3311 96.0362V113.602H42.3123V96.0362L44.0535 100.466L68.2555 104.104L68.9959 99.1778L67.0851 98.8907L78.9177 84.0394L75.0271 80.9481L73.6568 82.6678L69.8773 73.0499L71.9731 70.4195L68.0823 67.3279L66.4335 69.3974L56.853 67.9571V60.3357L61.0108 57.9347L58.5203 53.6345L54.9836 55.6764L42.3123 48.3604V44H37.3311V48.3604L24.6602 55.6761L21.1235 53.6345L18.6332 57.9347L22.791 60.3353V67.9571L13.2101 69.3974L11.561 67.3279L7.67035 70.4195L9.76605 73.0499L5.98655 82.6674ZM59.4145 86.1809L66.293 77.5483L70.0722 87.1658L63.1943 95.7986L59.4145 86.1809ZM20.2286 86.1809L13.3508 77.5483L9.57113 87.1658L16.4494 95.7986L20.2286 86.1809ZM51.8715 63.2116L42.3123 68.7305V79.0638L51.8715 73.5449V63.2116ZM56.853 72.9826L62.8576 73.8849L55.5236 83.0893L47.3955 81.868L56.853 76.4075V72.9826ZM32.2482 81.868L24.1197 83.0893L16.7862 73.8849L22.791 72.9826V76.4075L32.2482 81.868ZM37.3311 79.0638V68.7305L27.7723 63.2116V73.5449L37.3311 79.0638ZM29.6298 58.5452L39.8221 64.4297L50.014 58.5452L39.8221 52.6612L29.6298 58.5452ZM21.0907 97.6083L24.865 88.003L35.7803 86.3623L32.0008 95.9802L21.0907 97.6083ZM58.5526 97.6083L54.7788 88.003L43.863 86.3623L47.6425 95.9802L58.5526 97.6083Z" fill="#ED6E00"/>
<path d="M122 14.3333C122.736 14.3333 123.333 13.7364 123.333 13C123.333 12.2636 122.736 11.6667 122 11.6667C121.264 11.6667 120.667 12.2636 120.667 13C120.667 13.7364 121.264 14.3333 122 14.3333ZM122 36L122.25 36L122.25 13L122 13L121.75 13L121.75 36L122 36Z" fill="#BDB7B7"/>
<path d="M122 34.6667C121.264 34.6667 120.667 35.2636 120.667 36C120.667 36.7364 121.264 37.3333 122 37.3333C122.736 37.3333 123.333 36.7364 123.333 36C123.333 35.2636 122.736 34.6667 122 34.6667ZM122 13H121.75V36H122H122.25V13H122Z" fill="#BDB7B7"/>
<path d="M94 144.667C93.2636 144.667 92.6667 145.264 92.6667 146C92.6667 146.736 93.2636 147.333 94 147.333C94.7364 147.333 95.3333 146.736 95.3333 146C95.3333 145.264 94.7364 144.667 94 144.667ZM94 123H93.75V146H94H94.25V123H94Z" fill="#BDB7B7"/>
<path d="M94 124.333C94.7364 124.333 95.3333 123.736 95.3333 123C95.3333 122.264 94.7364 121.667 94 121.667C93.2636 121.667 92.6667 122.264 92.6667 123C92.6667 123.736 93.2636 124.333 94 124.333ZM94 146H94.25V123H94H93.75V146H94Z" fill="#BDB7B7"/>
<path d="M124.682 4C124.619 3.80871 124.537 3.63731 124.435 3.4858C124.334 3.33239 124.214 3.2017 124.074 3.09375C123.936 2.9858 123.778 2.90341 123.602 2.84659C123.426 2.78977 123.233 2.76136 123.023 2.76136C122.678 2.76136 122.365 2.85038 122.082 3.02841C121.8 3.20644 121.576 3.46875 121.409 3.81534C121.242 4.16193 121.159 4.58712 121.159 5.09091C121.159 5.5947 121.243 6.01989 121.412 6.36648C121.58 6.71307 121.809 6.97538 122.097 7.15341C122.384 7.33144 122.708 7.42045 123.068 7.42045C123.402 7.42045 123.695 7.34943 123.949 7.20739C124.205 7.06345 124.403 6.8608 124.545 6.59943C124.689 6.33617 124.761 6.02652 124.761 5.67045L124.977 5.71591H123.227V5.09091H125.443V5.71591C125.443 6.19508 125.341 6.61174 125.136 6.96591C124.934 7.32008 124.653 7.5947 124.295 7.78977C123.939 7.98295 123.53 8.07955 123.068 8.07955C122.553 8.07955 122.1 7.95833 121.71 7.71591C121.322 7.47348 121.019 7.12879 120.801 6.68182C120.585 6.23485 120.477 5.70455 120.477 5.09091C120.477 4.63068 120.539 4.21686 120.662 3.84943C120.787 3.48011 120.963 3.16572 121.19 2.90625C121.418 2.64678 121.687 2.44792 121.997 2.30966C122.308 2.1714 122.65 2.10227 123.023 2.10227C123.33 2.10227 123.616 2.14867 123.881 2.24148C124.148 2.33239 124.385 2.46212 124.594 2.63068C124.804 2.79735 124.979 2.99716 125.119 3.23011C125.259 3.46117 125.356 3.7178 125.409 4H124.682ZM126.559 8V3.63636H127.207V4.29545H127.252C127.332 4.07955 127.476 3.90436 127.684 3.76989C127.892 3.63542 128.127 3.56818 128.388 3.56818C128.438 3.56818 128.499 3.56913 128.573 3.57102C128.647 3.57292 128.703 3.57576 128.741 3.57955V4.26136C128.718 4.25568 128.666 4.24716 128.585 4.2358C128.505 4.22254 128.421 4.21591 128.332 4.21591C128.12 4.21591 127.93 4.26042 127.763 4.34943C127.599 4.43655 127.468 4.55777 127.371 4.71307C127.277 4.86648 127.229 5.04167 127.229 5.23864V8H126.559ZM131.175 8.09091C130.781 8.09091 130.436 7.99716 130.138 7.80966C129.843 7.62216 129.612 7.35985 129.445 7.02273C129.281 6.68561 129.198 6.29167 129.198 5.84091C129.198 5.38636 129.281 4.98958 129.445 4.65057C129.612 4.31155 129.843 4.0483 130.138 3.8608C130.436 3.6733 130.781 3.57955 131.175 3.57955C131.569 3.57955 131.914 3.6733 132.21 3.8608C132.507 4.0483 132.738 4.31155 132.903 4.65057C133.069 4.98958 133.153 5.38636 133.153 5.84091C133.153 6.29167 133.069 6.68561 132.903 7.02273C132.738 7.35985 132.507 7.62216 132.21 7.80966C131.914 7.99716 131.569 8.09091 131.175 8.09091ZM131.175 7.48864C131.475 7.48864 131.721 7.41193 131.914 7.25852C132.107 7.10511 132.25 6.90341 132.343 6.65341C132.436 6.40341 132.482 6.13258 132.482 5.84091C132.482 5.54924 132.436 5.27746 132.343 5.02557C132.25 4.77367 132.107 4.57008 131.914 4.41477C131.721 4.25947 131.475 4.18182 131.175 4.18182C130.876 4.18182 130.63 4.25947 130.437 4.41477C130.244 4.57008 130.101 4.77367 130.008 5.02557C129.915 5.27746 129.869 5.54924 129.869 5.84091C129.869 6.13258 129.915 6.40341 130.008 6.65341C130.101 6.90341 130.244 7.10511 130.437 7.25852C130.63 7.41193 130.876 7.48864 131.175 7.48864ZM135.016 8L133.687 3.63636H134.391L135.335 6.97727H135.38L136.312 3.63636H137.028L137.948 6.96591H137.994L138.937 3.63636H139.641L138.312 8H137.653L136.698 4.64773H136.63L135.675 8H135.016ZM142.425 3.63636V4.20455H140.164V3.63636H142.425ZM140.823 2.59091H141.494V6.75C141.494 6.93939 141.521 7.08144 141.576 7.17614C141.633 7.26894 141.705 7.33144 141.792 7.36364C141.881 7.39394 141.975 7.40909 142.073 7.40909C142.147 7.40909 142.208 7.4053 142.255 7.39773C142.302 7.38826 142.34 7.38068 142.369 7.375L142.505 7.97727C142.46 7.99432 142.396 8.01136 142.315 8.02841C142.233 8.04735 142.13 8.05682 142.005 8.05682C141.816 8.05682 141.63 8.0161 141.448 7.93466C141.268 7.85322 141.119 7.72917 140.999 7.5625C140.882 7.39583 140.823 7.18561 140.823 6.93182V2.59091ZM144.198 5.375V8H143.528V2.18182H144.198V4.31818H144.255C144.357 4.0928 144.511 3.91383 144.715 3.78125C144.922 3.64678 145.196 3.57955 145.539 3.57955C145.836 3.57955 146.097 3.6392 146.32 3.75852C146.544 3.87595 146.717 4.05682 146.84 4.30114C146.965 4.54356 147.028 4.85227 147.028 5.22727V8H146.357V5.27273C146.357 4.92614 146.267 4.65814 146.087 4.46875C145.909 4.27746 145.662 4.18182 145.346 4.18182C145.126 4.18182 144.929 4.22822 144.755 4.32102C144.583 4.41383 144.446 4.54924 144.346 4.72727C144.247 4.9053 144.198 5.12121 144.198 5.375ZM150.777 4.55682V3.94318H154.277V4.55682H150.777ZM150.777 6.23864V5.625H154.277V6.23864H150.777ZM158.823 2.18182V8H158.119V2.18182H158.823ZM160.815 5.375V8H160.145V3.63636H160.793V4.31818H160.849C160.952 4.09659 161.107 3.91856 161.315 3.78409C161.524 3.64773 161.793 3.57955 162.122 3.57955C162.418 3.57955 162.676 3.64015 162.898 3.76136C163.119 3.88068 163.292 4.0625 163.415 4.30682C163.538 4.54924 163.599 4.85606 163.599 5.22727V8H162.929V5.27273C162.929 4.92992 162.84 4.66288 162.662 4.47159C162.484 4.27841 162.24 4.18182 161.929 4.18182C161.715 4.18182 161.524 4.22822 161.355 4.32102C161.188 4.41383 161.057 4.54924 160.96 4.72727C160.864 4.9053 160.815 5.12121 160.815 5.375ZM165.495 5.375V8H164.825V3.63636H165.472V4.31818H165.529C165.631 4.09659 165.787 3.91856 165.995 3.78409C166.203 3.64773 166.472 3.57955 166.802 3.57955C167.097 3.57955 167.356 3.64015 167.577 3.76136C167.799 3.88068 167.971 4.0625 168.094 4.30682C168.218 4.54924 168.279 4.85606 168.279 5.22727V8H167.609V5.27273C167.609 4.92992 167.52 4.66288 167.342 4.47159C167.164 4.27841 166.919 4.18182 166.609 4.18182C166.395 4.18182 166.203 4.22822 166.035 4.32102C165.868 4.41383 165.737 4.54924 165.64 4.72727C165.543 4.9053 165.495 5.12121 165.495 5.375ZM171.277 8.09091C170.883 8.09091 170.537 7.99716 170.24 7.80966C169.945 7.62216 169.714 7.35985 169.547 7.02273C169.382 6.68561 169.3 6.29167 169.3 5.84091C169.3 5.38636 169.382 4.98958 169.547 4.65057C169.714 4.31155 169.945 4.0483 170.24 3.8608C170.537 3.6733 170.883 3.57955 171.277 3.57955C171.671 3.57955 172.016 3.6733 172.311 3.8608C172.608 4.0483 172.839 4.31155 173.004 4.65057C173.171 4.98958 173.254 5.38636 173.254 5.84091C173.254 6.29167 173.171 6.68561 173.004 7.02273C172.839 7.35985 172.608 7.62216 172.311 7.80966C172.016 7.99716 171.671 8.09091 171.277 8.09091ZM171.277 7.48864C171.576 7.48864 171.822 7.41193 172.016 7.25852C172.209 7.10511 172.352 6.90341 172.445 6.65341C172.537 6.40341 172.584 6.13258 172.584 5.84091C172.584 5.54924 172.537 5.27746 172.445 5.02557C172.352 4.77367 172.209 4.57008 172.016 4.41477C171.822 4.25947 171.576 4.18182 171.277 4.18182C170.978 4.18182 170.732 4.25947 170.538 4.41477C170.345 4.57008 170.202 4.77367 170.109 5.02557C170.017 5.27746 169.97 5.54924 169.97 5.84091C169.97 6.13258 170.017 6.40341 170.109 6.65341C170.202 6.90341 170.345 7.10511 170.538 7.25852C170.732 7.41193 170.978 7.48864 171.277 7.48864ZM177.69 3.63636L176.076 8H175.394L173.781 3.63636H174.508L175.712 7.11364H175.758L176.962 3.63636H177.69ZM179.726 8.10227C179.449 8.10227 179.198 8.05019 178.973 7.94602C178.748 7.83996 178.569 7.6875 178.436 7.48864C178.304 7.28788 178.237 7.04545 178.237 6.76136C178.237 6.51136 178.286 6.30871 178.385 6.15341C178.483 5.99621 178.615 5.87311 178.78 5.78409C178.945 5.69508 179.126 5.62879 179.325 5.58523C179.526 5.53977 179.728 5.50379 179.93 5.47727C180.196 5.44318 180.411 5.41761 180.575 5.40057C180.742 5.38163 180.863 5.35038 180.939 5.30682C181.017 5.26326 181.055 5.1875 181.055 5.07955V5.05682C181.055 4.77652 180.979 4.55871 180.825 4.40341C180.674 4.24811 180.444 4.17045 180.135 4.17045C179.815 4.17045 179.564 4.24053 179.382 4.38068C179.2 4.52083 179.072 4.67045 178.999 4.82955L178.362 4.60227C178.476 4.33712 178.627 4.13068 178.817 3.98295C179.008 3.83333 179.216 3.72917 179.442 3.67045C179.669 3.60985 179.893 3.57955 180.112 3.57955C180.252 3.57955 180.413 3.59659 180.595 3.63068C180.779 3.66288 180.956 3.73011 181.126 3.83239C181.299 3.93466 181.442 4.08902 181.555 4.29545C181.669 4.50189 181.726 4.77841 181.726 5.125V8H181.055V7.40909H181.021C180.976 7.50379 180.9 7.60511 180.794 7.71307C180.688 7.82102 180.547 7.91288 180.371 7.98864C180.195 8.06439 179.98 8.10227 179.726 8.10227ZM179.828 7.5C180.093 7.5 180.317 7.44792 180.499 7.34375C180.682 7.23958 180.821 7.10511 180.913 6.94034C181.008 6.77557 181.055 6.60227 181.055 6.42045V5.80682C181.027 5.84091 180.964 5.87216 180.868 5.90057C180.773 5.92708 180.663 5.95076 180.538 5.97159C180.415 5.99053 180.295 6.00758 180.178 6.02273C180.062 6.03598 179.968 6.04735 179.896 6.05682C179.722 6.07955 179.559 6.11648 179.408 6.16761C179.258 6.21686 179.137 6.29167 179.044 6.39205C178.953 6.49053 178.908 6.625 178.908 6.79545C178.908 7.02841 178.994 7.20455 179.166 7.32386C179.34 7.44129 179.561 7.5 179.828 7.5ZM184.847 3.63636V4.20455H182.586V3.63636H184.847ZM183.245 2.59091H183.915V6.75C183.915 6.93939 183.943 7.08144 183.998 7.17614C184.055 7.26894 184.127 7.33144 184.214 7.36364C184.303 7.39394 184.397 7.40909 184.495 7.40909C184.569 7.40909 184.629 7.4053 184.677 7.39773C184.724 7.38826 184.762 7.38068 184.79 7.375L184.927 7.97727C184.881 7.99432 184.818 8.01136 184.737 8.02841C184.655 8.04735 184.552 8.05682 184.427 8.05682C184.237 8.05682 184.052 8.0161 183.87 7.93466C183.69 7.85322 183.54 7.72917 183.421 7.5625C183.304 7.39583 183.245 7.18561 183.245 6.93182V2.59091ZM185.856 8V3.63636H186.526V8H185.856ZM186.197 2.90909C186.066 2.90909 185.953 2.86458 185.859 2.77557C185.766 2.68655 185.719 2.57955 185.719 2.45455C185.719 2.32955 185.766 2.22254 185.859 2.13352C185.953 2.04451 186.066 2 186.197 2C186.327 2 186.439 2.04451 186.532 2.13352C186.627 2.22254 186.674 2.32955 186.674 2.45455C186.674 2.57955 186.627 2.68655 186.532 2.77557C186.439 2.86458 186.327 2.90909 186.197 2.90909ZM189.527 8.09091C189.133 8.09091 188.787 7.99716 188.49 7.80966C188.195 7.62216 187.964 7.35985 187.797 7.02273C187.632 6.68561 187.55 6.29167 187.55 5.84091C187.55 5.38636 187.632 4.98958 187.797 4.65057C187.964 4.31155 188.195 4.0483 188.49 3.8608C188.787 3.6733 189.133 3.57955 189.527 3.57955C189.921 3.57955 190.266 3.6733 190.561 3.8608C190.858 4.0483 191.089 4.31155 191.254 4.65057C191.421 4.98958 191.504 5.38636 191.504 5.84091C191.504 6.29167 191.421 6.68561 191.254 7.02273C191.089 7.35985 190.858 7.62216 190.561 7.80966C190.266 7.99716 189.921 8.09091 189.527 8.09091ZM189.527 7.48864C189.826 7.48864 190.072 7.41193 190.266 7.25852C190.459 7.10511 190.602 6.90341 190.695 6.65341C190.787 6.40341 190.834 6.13258 190.834 5.84091C190.834 5.54924 190.787 5.27746 190.695 5.02557C190.602 4.77367 190.459 4.57008 190.266 4.41477C190.072 4.25947 189.826 4.18182 189.527 4.18182C189.228 4.18182 188.982 4.25947 188.788 4.41477C188.595 4.57008 188.452 4.77367 188.359 5.02557C188.267 5.27746 188.22 5.54924 188.22 5.84091C188.22 6.13258 188.267 6.40341 188.359 6.65341C188.452 6.90341 188.595 7.10511 188.788 7.25852C188.982 7.41193 189.228 7.48864 189.527 7.48864ZM193.198 5.375V8H192.528V3.63636H193.175V4.31818H193.232C193.335 4.09659 193.49 3.91856 193.698 3.78409C193.906 3.64773 194.175 3.57955 194.505 3.57955C194.8 3.57955 195.059 3.64015 195.281 3.76136C195.502 3.88068 195.674 4.0625 195.798 4.30682C195.921 4.54924 195.982 4.85606 195.982 5.22727V8H195.312V5.27273C195.312 4.92992 195.223 4.66288 195.045 4.47159C194.867 4.27841 194.622 4.18182 194.312 4.18182C194.098 4.18182 193.906 4.22822 193.738 4.32102C193.571 4.41383 193.44 4.54924 193.343 4.72727C193.246 4.9053 193.198 5.12121 193.198 5.375Z" fill="#D4D4D4"/>
<path d="M93.7045 156V150.182H95.6705C96.125 150.182 96.4981 150.259 96.7898 150.415C97.0814 150.568 97.2973 150.779 97.4375 151.048C97.5777 151.317 97.6477 151.623 97.6477 151.966C97.6477 152.309 97.5777 152.613 97.4375 152.878C97.2973 153.143 97.0824 153.351 96.7926 153.503C96.5028 153.652 96.1326 153.727 95.6818 153.727H94.0909V153.091H95.6591C95.9697 153.091 96.2197 153.045 96.4091 152.955C96.6004 152.864 96.7386 152.735 96.8239 152.568C96.911 152.4 96.9545 152.199 96.9545 151.966C96.9545 151.733 96.911 151.529 96.8239 151.355C96.7367 151.181 96.5975 151.046 96.4062 150.952C96.215 150.855 95.9621 150.807 95.6477 150.807H94.4091V156H93.7045ZM96.4432 153.386L97.875 156H97.0568L95.6477 153.386H96.4432ZM100.457 156.091C100.063 156.091 99.7171 155.997 99.4197 155.81C99.1243 155.622 98.8932 155.36 98.7266 155.023C98.5618 154.686 98.4794 154.292 98.4794 153.841C98.4794 153.386 98.5618 152.99 98.7266 152.651C98.8932 152.312 99.1243 152.048 99.4197 151.861C99.7171 151.673 100.063 151.58 100.457 151.58C100.851 151.58 101.195 151.673 101.491 151.861C101.788 152.048 102.019 152.312 102.184 152.651C102.351 152.99 102.434 153.386 102.434 153.841C102.434 154.292 102.351 154.686 102.184 155.023C102.019 155.36 101.788 155.622 101.491 155.81C101.195 155.997 100.851 156.091 100.457 156.091ZM100.457 155.489C100.756 155.489 101.002 155.412 101.195 155.259C101.388 155.105 101.531 154.903 101.624 154.653C101.717 154.403 101.763 154.133 101.763 153.841C101.763 153.549 101.717 153.277 101.624 153.026C101.531 152.774 101.388 152.57 101.195 152.415C101.002 152.259 100.756 152.182 100.457 152.182C100.157 152.182 99.9112 152.259 99.718 152.415C99.5249 152.57 99.3819 152.774 99.2891 153.026C99.1963 153.277 99.1499 153.549 99.1499 153.841C99.1499 154.133 99.1963 154.403 99.2891 154.653C99.3819 154.903 99.5249 155.105 99.718 155.259C99.9112 155.412 100.157 155.489 100.457 155.489ZM105.23 156.091C104.836 156.091 104.491 155.997 104.193 155.81C103.898 155.622 103.667 155.36 103.5 155.023C103.335 154.686 103.253 154.292 103.253 153.841C103.253 153.386 103.335 152.99 103.5 152.651C103.667 152.312 103.898 152.048 104.193 151.861C104.491 151.673 104.836 151.58 105.23 151.58C105.624 151.58 105.969 151.673 106.264 151.861C106.562 152.048 106.793 152.312 106.957 152.651C107.124 152.99 107.207 153.386 107.207 153.841C107.207 154.292 107.124 154.686 106.957 155.023C106.793 155.36 106.562 155.622 106.264 155.81C105.969 155.997 105.624 156.091 105.23 156.091ZM105.23 155.489C105.529 155.489 105.776 155.412 105.969 155.259C106.162 155.105 106.305 154.903 106.398 154.653C106.491 154.403 106.537 154.133 106.537 153.841C106.537 153.549 106.491 153.277 106.398 153.026C106.305 152.774 106.162 152.57 105.969 152.415C105.776 152.259 105.529 152.182 105.23 152.182C104.931 152.182 104.685 152.259 104.491 152.415C104.298 152.57 104.155 152.774 104.062 153.026C103.97 153.277 103.923 153.549 103.923 153.841C103.923 154.133 103.97 154.403 104.062 154.653C104.155 154.903 104.298 155.105 104.491 155.259C104.685 155.412 104.931 155.489 105.23 155.489ZM110.129 151.636V152.205H107.867V151.636H110.129ZM108.526 150.591H109.197V154.75C109.197 154.939 109.224 155.081 109.279 155.176C109.336 155.269 109.408 155.331 109.495 155.364C109.584 155.394 109.678 155.409 109.776 155.409C109.85 155.409 109.911 155.405 109.958 155.398C110.005 155.388 110.043 155.381 110.072 155.375L110.208 155.977C110.163 155.994 110.099 156.011 110.018 156.028C109.936 156.047 109.833 156.057 109.708 156.057C109.519 156.057 109.333 156.016 109.151 155.935C108.971 155.853 108.822 155.729 108.702 155.562C108.585 155.396 108.526 155.186 108.526 154.932V150.591ZM113.66 152.557V151.943H117.16V152.557H113.66ZM113.66 154.239V153.625H117.16V154.239H113.66ZM121.001 156V150.182H122.967C123.422 150.182 123.795 150.259 124.087 150.415C124.378 150.568 124.594 150.779 124.734 151.048C124.875 151.317 124.945 151.623 124.945 151.966C124.945 152.309 124.875 152.613 124.734 152.878C124.594 153.143 124.379 153.351 124.089 153.503C123.8 153.652 123.429 153.727 122.979 153.727H121.388V153.091H122.956C123.267 153.091 123.517 153.045 123.706 152.955C123.897 152.864 124.036 152.735 124.121 152.568C124.208 152.4 124.251 152.199 124.251 151.966C124.251 151.733 124.208 151.529 124.121 151.355C124.034 151.181 123.894 151.046 123.703 150.952C123.512 150.855 123.259 150.807 122.945 150.807H121.706V156H121.001ZM123.74 153.386L125.172 156H124.354L122.945 153.386H123.74ZM127.81 156.091C127.39 156.091 127.027 155.998 126.722 155.812C126.419 155.625 126.185 155.364 126.021 155.028C125.858 154.691 125.776 154.299 125.776 153.852C125.776 153.405 125.858 153.011 126.021 152.67C126.185 152.328 126.415 152.061 126.708 151.869C127.004 151.676 127.348 151.58 127.742 151.58C127.969 151.58 128.194 151.617 128.415 151.693C128.637 151.769 128.839 151.892 129.021 152.062C129.202 152.231 129.347 152.455 129.455 152.733C129.563 153.011 129.617 153.354 129.617 153.761V154.045H126.254V153.466H128.935C128.935 153.22 128.886 153 128.788 152.807C128.691 152.614 128.553 152.461 128.373 152.349C128.195 152.238 127.985 152.182 127.742 152.182C127.475 152.182 127.244 152.248 127.049 152.381C126.856 152.511 126.707 152.682 126.603 152.892C126.499 153.102 126.447 153.328 126.447 153.568V153.955C126.447 154.284 126.504 154.563 126.617 154.793C126.733 155.02 126.893 155.193 127.097 155.312C127.302 155.43 127.54 155.489 127.81 155.489C127.987 155.489 128.146 155.464 128.288 155.415C128.432 155.364 128.556 155.288 128.66 155.188C128.764 155.085 128.844 154.958 128.901 154.807L129.549 154.989C129.481 155.208 129.366 155.402 129.205 155.568C129.044 155.733 128.845 155.862 128.609 155.955C128.372 156.045 128.106 156.091 127.81 156.091ZM130.637 157.636V151.636H131.285V152.33H131.364C131.414 152.254 131.482 152.157 131.569 152.04C131.658 151.92 131.785 151.814 131.95 151.722C132.116 151.627 132.342 151.58 132.626 151.58C132.993 151.58 133.317 151.671 133.597 151.855C133.878 152.039 134.096 152.299 134.254 152.636C134.411 152.973 134.489 153.371 134.489 153.83C134.489 154.292 134.411 154.692 134.254 155.031C134.096 155.368 133.879 155.63 133.6 155.815C133.322 155.999 133.001 156.091 132.637 156.091C132.357 156.091 132.132 156.045 131.964 155.952C131.795 155.857 131.665 155.75 131.575 155.631C131.484 155.509 131.414 155.409 131.364 155.33H131.308V157.636H130.637ZM131.296 153.818C131.296 154.148 131.344 154.438 131.441 154.69C131.538 154.94 131.679 155.136 131.864 155.278C132.05 155.419 132.277 155.489 132.546 155.489C132.826 155.489 133.06 155.415 133.248 155.267C133.437 155.117 133.579 154.917 133.674 154.665C133.771 154.411 133.819 154.129 133.819 153.818C133.819 153.511 133.772 153.235 133.677 152.989C133.584 152.741 133.443 152.545 133.254 152.401C133.066 152.255 132.83 152.182 132.546 152.182C132.273 152.182 132.044 152.251 131.859 152.389C131.673 152.526 131.533 152.717 131.438 152.963C131.344 153.207 131.296 153.492 131.296 153.818ZM138.262 154.216V151.636H138.933V156H138.262V155.261H138.217C138.114 155.483 137.955 155.671 137.739 155.827C137.523 155.98 137.251 156.057 136.921 156.057C136.648 156.057 136.406 155.997 136.194 155.878C135.982 155.757 135.815 155.575 135.694 155.332C135.573 155.088 135.512 154.78 135.512 154.409V151.636H136.183V154.364C136.183 154.682 136.272 154.936 136.45 155.125C136.629 155.314 136.859 155.409 137.137 155.409C137.304 155.409 137.473 155.366 137.646 155.281C137.82 155.196 137.966 155.065 138.083 154.889C138.202 154.713 138.262 154.489 138.262 154.216ZM142.058 151.636V152.205H139.797V151.636H142.058ZM140.456 150.591H141.126V154.75C141.126 154.939 141.154 155.081 141.209 155.176C141.266 155.269 141.338 155.331 141.425 155.364C141.514 155.394 141.607 155.409 141.706 155.409C141.78 155.409 141.84 155.405 141.888 155.398C141.935 155.388 141.973 155.381 142.001 155.375L142.138 155.977C142.092 155.994 142.029 156.011 141.947 156.028C141.866 156.047 141.763 156.057 141.638 156.057C141.448 156.057 141.263 156.016 141.081 155.935C140.901 155.853 140.751 155.729 140.632 155.562C140.515 155.396 140.456 155.186 140.456 154.932V150.591ZM144.351 156.102C144.074 156.102 143.823 156.05 143.598 155.946C143.373 155.84 143.194 155.688 143.061 155.489C142.929 155.288 142.862 155.045 142.862 154.761C142.862 154.511 142.911 154.309 143.01 154.153C143.108 153.996 143.24 153.873 143.405 153.784C143.57 153.695 143.751 153.629 143.95 153.585C144.151 153.54 144.353 153.504 144.555 153.477C144.821 153.443 145.036 153.418 145.2 153.401C145.367 153.382 145.488 153.35 145.564 153.307C145.642 153.263 145.68 153.187 145.68 153.08V153.057C145.68 152.777 145.604 152.559 145.45 152.403C145.299 152.248 145.069 152.17 144.76 152.17C144.44 152.17 144.189 152.241 144.007 152.381C143.825 152.521 143.697 152.67 143.624 152.83L142.987 152.602C143.101 152.337 143.252 152.131 143.442 151.983C143.633 151.833 143.841 151.729 144.067 151.67C144.294 151.61 144.518 151.58 144.737 151.58C144.877 151.58 145.038 151.597 145.22 151.631C145.404 151.663 145.581 151.73 145.751 151.832C145.924 151.935 146.067 152.089 146.18 152.295C146.294 152.502 146.351 152.778 146.351 153.125V156H145.68V155.409H145.646C145.601 155.504 145.525 155.605 145.419 155.713C145.313 155.821 145.172 155.913 144.996 155.989C144.82 156.064 144.605 156.102 144.351 156.102ZM144.453 155.5C144.718 155.5 144.942 155.448 145.124 155.344C145.307 155.24 145.446 155.105 145.538 154.94C145.633 154.776 145.68 154.602 145.68 154.42V153.807C145.652 153.841 145.589 153.872 145.493 153.901C145.398 153.927 145.288 153.951 145.163 153.972C145.04 153.991 144.92 154.008 144.803 154.023C144.687 154.036 144.593 154.047 144.521 154.057C144.347 154.08 144.184 154.116 144.033 154.168C143.883 154.217 143.762 154.292 143.669 154.392C143.578 154.491 143.533 154.625 143.533 154.795C143.533 155.028 143.619 155.205 143.791 155.324C143.965 155.441 144.186 155.5 144.453 155.5ZM149.472 151.636V152.205H147.211V151.636H149.472ZM147.87 150.591H148.54V154.75C148.54 154.939 148.568 155.081 148.623 155.176C148.68 155.269 148.752 155.331 148.839 155.364C148.928 155.394 149.022 155.409 149.12 155.409C149.194 155.409 149.254 155.405 149.302 155.398C149.349 155.388 149.387 155.381 149.415 155.375L149.552 155.977C149.506 155.994 149.443 156.011 149.362 156.028C149.28 156.047 149.177 156.057 149.052 156.057C148.862 156.057 148.677 156.016 148.495 155.935C148.315 155.853 148.165 155.729 148.046 155.562C147.929 155.396 147.87 155.186 147.87 154.932V150.591ZM150.481 156V151.636H151.151V156H150.481ZM150.822 150.909C150.691 150.909 150.578 150.865 150.484 150.776C150.391 150.687 150.344 150.58 150.344 150.455C150.344 150.33 150.391 150.223 150.484 150.134C150.578 150.045 150.691 150 150.822 150C150.952 150 151.064 150.045 151.157 150.134C151.252 150.223 151.299 150.33 151.299 150.455C151.299 150.58 151.252 150.687 151.157 150.776C151.064 150.865 150.952 150.909 150.822 150.909ZM154.152 156.091C153.758 156.091 153.412 155.997 153.115 155.81C152.82 155.622 152.589 155.36 152.422 155.023C152.257 154.686 152.175 154.292 152.175 153.841C152.175 153.386 152.257 152.99 152.422 152.651C152.589 152.312 152.82 152.048 153.115 151.861C153.412 151.673 153.758 151.58 154.152 151.58C154.546 151.58 154.891 151.673 155.186 151.861C155.483 152.048 155.714 152.312 155.879 152.651C156.046 152.99 156.129 153.386 156.129 153.841C156.129 154.292 156.046 154.686 155.879 155.023C155.714 155.36 155.483 155.622 155.186 155.81C154.891 155.997 154.546 156.091 154.152 156.091ZM154.152 155.489C154.451 155.489 154.697 155.412 154.891 155.259C155.084 155.105 155.227 154.903 155.32 154.653C155.412 154.403 155.459 154.133 155.459 153.841C155.459 153.549 155.412 153.277 155.32 153.026C155.227 152.774 155.084 152.57 154.891 152.415C154.697 152.259 154.451 152.182 154.152 152.182C153.853 152.182 153.607 152.259 153.413 152.415C153.22 152.57 153.077 152.774 152.984 153.026C152.892 153.277 152.845 153.549 152.845 153.841C152.845 154.133 152.892 154.403 152.984 154.653C153.077 154.903 153.22 155.105 153.413 155.259C153.607 155.412 153.853 155.489 154.152 155.489ZM157.823 153.375V156H157.153V151.636H157.8V152.318H157.857C157.96 152.097 158.115 151.919 158.323 151.784C158.531 151.648 158.8 151.58 159.13 151.58C159.425 151.58 159.684 151.64 159.906 151.761C160.127 151.881 160.299 152.062 160.423 152.307C160.546 152.549 160.607 152.856 160.607 153.227V156H159.937V153.273C159.937 152.93 159.848 152.663 159.67 152.472C159.492 152.278 159.247 152.182 158.937 152.182C158.723 152.182 158.531 152.228 158.363 152.321C158.196 152.414 158.065 152.549 157.968 152.727C157.871 152.905 157.823 153.121 157.823 153.375Z" fill="#D4D4D4"/>
</svg>
