<?xml version="1.0" encoding="utf-8"?>
<!-- Generator: Adobe Illustrator 19.2.1, SVG Export Plug-In . SVG Version: 6.00 Build 0)  -->
<svg version="1.1" id="layer" xmlns="http://www.w3.org/2000/svg" xmlns:xlink="http://www.w3.org/1999/xlink" x="0px" y="0px"
	 viewBox="0 0 652 652" style="enable-background:new 0 0 652 652;" xml:space="preserve">
<style type="text/css">
	.st0{fill:#14447A;}
	.st1{fill:#33A93D;}
</style>
<path class="st0" d="M232.2,301.2l4.3,29.1h-22.6L232.2,301.2z M228.2,286.1l-51,75.6h16.9l11.3-18h33l2.5,18h17.8l-13.5-75.6H228.2
	z"/>
<path class="st0" d="M428,299.6c9.5,0,13.7,1.7,11.8,9.5c-1.9,7.7-7,9.6-16.6,9.6h-19.6l4.7-19H428z M395.9,286.1L377,361.7h16
	l7.4-29.7h18.8l9.3,29.7h18l-11-31.6c10.4-2.1,17.7-9.6,20.6-21.3c4-15.9-2.9-22.7-20.9-22.7H395.9z"/>
<path class="st0" d="M47.8,316.8H92L88.7,330H44.4c-3.3,13.6,0.9,18.5,13.5,18.5h26.2l-3.3,13.2h-27c-9.2,0-16.1-0.7-22-6.6
	c-6.3-6.2-7.6-16.1-4.2-29.8c6.7-26.7,21.1-39.2,45.5-39.2h26.5l-3.3,13.2H70.1C58.6,299.3,51.4,304.9,47.8,316.8"/>
<path class="st0" d="M318.5,316.8h37.7l-11.2,44.8h-34.4c-9.2,0-16.4-0.5-22.5-6.6c-6.3-6.2-7.6-16.1-4.2-29.8
	c6.7-26.7,21.2-39.2,45.5-39.2h34.4l-3.3,13.1h-34.4c-12.8,0-20,8.1-24.3,25.4c-4,16.1-0.8,23.5,12.1,23.5h18l4.4-17.8h-21.4
	L318.5,316.8z"/>
<polygon class="st0" points="493.6,286.1 510.3,286.1 491.4,361.7 474.7,361.7 "/>
<path class="st0" d="M541.8,286.1L523,361.7h35.2c9.2,0,16.5-0.7,25.3-6.6c9.4-6.2,15.7-16.1,19.1-29.8c6.7-26.7-1.6-39.2-26-39.2
	H541.8z M573,299.3c14.2,0,17.1,6.1,12.5,24.6c-4.6,18.6-10.6,24.6-24.8,24.6h-18.5l12.3-49.3H573z"/>
<path class="st1" d="M175,372.3l-21.8-48.1l28.7-38h-20.1l-16.2,21.3l-16.5-36.5c0,0-2.1-4.4-9.1-4.5h-0.7c-0.9,0-1.8,0.1-2.8,0.2
	c-10.5,1.6-80.8,8.1-80.8,8.1l-0.4,0.6h77.1l21,47.9l-29.3,38.4h20.6l16.1-21.4l17.8,40.7c0,0,2.8,6,12.2,5.3
	c15.5-1.2,426-13,426-13l0.9-1.1H175z"/>
<path class="st0" d="M617.9,298.9c-1.1,0-2.1-0.2-3.1-0.6c-1-0.4-1.8-1-2.5-1.7c-0.7-0.7-1.3-1.5-1.7-2.5c-0.4-0.9-0.6-2-0.6-3.1
	c0-1.1,0.2-2.1,0.6-3c0.4-1,1-1.8,1.7-2.5c0.7-0.7,1.5-1.3,2.5-1.7c0.9-0.4,2-0.6,3.1-0.6c1.1,0,2.1,0.2,3,0.6c1,0.4,1.8,1,2.5,1.7
	c0.7,0.7,1.3,1.5,1.7,2.5c0.4,1,0.6,2,0.6,3c0,1.1-0.2,2.1-0.6,3.1c-0.4,1-1,1.8-1.7,2.5c-0.7,0.7-1.5,1.3-2.5,1.7
	C620,298.7,619,298.9,617.9,298.9 M617.9,297.8c1,0,1.8-0.2,2.6-0.5c0.8-0.4,1.5-0.8,2.1-1.4c0.6-0.6,1-1.3,1.4-2.2
	c0.3-0.8,0.5-1.7,0.5-2.7c0-1-0.2-1.8-0.5-2.7c-0.3-0.8-0.8-1.5-1.4-2.2c-0.6-0.6-1.3-1.1-2.1-1.4c-0.8-0.4-1.7-0.5-2.6-0.5
	c-1,0-1.8,0.2-2.6,0.5c-0.8,0.4-1.5,0.8-2.1,1.4c-0.6,0.6-1,1.3-1.4,2.2c-0.3,0.8-0.5,1.7-0.5,2.7c0,1,0.2,1.9,0.5,2.7
	c0.3,0.8,0.8,1.5,1.4,2.2c0.6,0.6,1.3,1.1,2.1,1.4C616.1,297.7,617,297.8,617.9,297.8z M621.8,295.4h-1.3l-2.5-4h-2v4H615v-8.7h3.8
	c1.2,0,2,0.2,2.4,0.6c0.5,0.4,0.7,1,0.7,1.7c0,0.4-0.1,0.8-0.2,1.1c-0.1,0.3-0.3,0.5-0.6,0.7c-0.2,0.2-0.5,0.3-0.9,0.4
	c-0.3,0.1-0.7,0.1-1.1,0.2L621.8,295.4z M617.7,290.5c0.3,0,0.6,0,1,0c0.4,0,0.7,0,1-0.1c0.3-0.1,0.6-0.2,0.8-0.5
	c0.2-0.2,0.3-0.6,0.3-1c0-0.3-0.1-0.6-0.2-0.8c-0.1-0.2-0.3-0.4-0.5-0.5c-0.2-0.1-0.4-0.2-0.7-0.2c-0.3,0-0.5-0.1-0.8-0.1h-2.5v3.1
	H617.7z"/>
</svg>
