<svg width="601" height="121" viewBox="0 0 601 121" fill="none" xmlns="http://www.w3.org/2000/svg">
<path d="M207.2 35.2L211.5 64.3H188.9L207.2 35.2ZM203.2 20.1L152.2 95.7H169.1L180.4 77.7H213.4L215.9 95.7H233.7L220.2 20.1H203.2Z" fill="#14447A"/>
<path d="M403 33.6C412.5 33.6 416.7 35.3 414.8 43.1C412.9 50.8 407.8 52.7 398.2 52.7H378.6L383.3 33.7H403V33.6ZM370.9 20.1L352 95.7H368L375.4 66H394.2L403.5 95.7H421.5L410.5 64.1C420.9 62 428.2 54.5 431.1 42.8C435.1 26.9 428.2 20.1 410.2 20.1H370.9Z" fill="#14447A"/>
<path d="M22.8 50.8H67L63.7 64H19.4C16.1 77.6 20.3 82.5 32.9 82.5H59.1L55.8 95.7H28.8C19.6 95.7 12.7 95 6.80001 89.1C0.500011 82.9 -0.799988 73 2.60001 59.3C9.30001 32.6 23.7 20.1 48.1 20.1H74.6L71.3 33.3H45.1C33.6 33.3 26.4 38.9 22.8 50.8Z" fill="#14447A"/>
<path d="M293.5 50.8H331.2L320 95.6H285.6C276.4 95.6 269.2 95.1 263.1 89C256.8 82.8 255.5 72.9 258.9 59.2C265.6 32.5 280.1 20 304.4 20H338.8L335.5 33.1H301.1C288.3 33.1 281.1 41.2 276.8 58.5C272.8 74.6 276 82 288.9 82H306.9L311.3 64.2H289.9L293.5 50.8Z" fill="#14447A"/>
<path d="M468.6 20.1H485.3L466.4 95.7H449.7L468.6 20.1Z" fill="#14447A"/>
<path d="M516.8 20.1L498 95.7H533.2C542.4 95.7 549.7 95 558.5 89.1C567.9 82.9 574.2 73 577.6 59.3C584.3 32.6 576 20.1 551.6 20.1H516.8ZM548 33.3C562.2 33.3 565.1 39.4 560.5 57.9C555.9 76.5 549.9 82.5 535.7 82.5H517.2L529.5 33.2H548V33.3Z" fill="#14447A"/>
<path d="M150 106.3L128.2 58.2L156.9 20.2H136.8L120.6 41.5L104.1 5C104.1 5 102 0.6 95 0.5H94.3C93.4 0.5 92.5 0.600012 91.5 0.700012C81 2.30001 10.7001 8.79999 10.7001 8.79999L10.3 9.39999H87.4001L108.4 57.3L79.1001 95.7H99.7L115.8 74.3L133.6 115C133.6 115 136.4 121 145.8 120.3C161.3 119.1 571.8 107.3 571.8 107.3L572.7 106.2H150V106.3Z" fill="#33A93D"/>
<path d="M592.9 32.8999C591.8 32.8999 590.8 32.6999 589.8 32.2999C588.8 31.8999 588 31.2999 587.3 30.5999C586.6 29.8999 586 29.0999 585.6 28.0999C585.2 27.1999 585 26.0999 585 24.9999C585 23.8999 585.2 22.8999 585.6 21.9999C586 20.9999 586.6 20.1999 587.3 19.4999C588 18.7999 588.8 18.1999 589.8 17.7999C590.7 17.3999 591.8 17.2 592.9 17.2C594 17.2 595 17.3999 595.9 17.7999C596.9 18.1999 597.7 18.7999 598.4 19.4999C599.1 20.1999 599.7 20.9999 600.1 21.9999C600.5 22.9999 600.7 23.9999 600.7 24.9999C600.7 26.0999 600.5 27.0999 600.1 28.0999C599.7 29.0999 599.1 29.8999 598.4 30.5999C597.7 31.2999 596.9 31.8999 595.9 32.2999C595 32.6999 594 32.8999 592.9 32.8999ZM592.9 31.7999C593.9 31.7999 594.7 31.5999 595.5 31.2999C596.3 30.8999 597 30.4999 597.6 29.8999C598.2 29.2999 598.6 28.6 599 27.7C599.3 26.9 599.5 25.9999 599.5 24.9999C599.5 23.9999 599.3 23.1999 599 22.2999C598.7 21.4999 598.2 20.7999 597.6 20.0999C597 19.4999 596.3 19 595.5 18.7C594.7 18.3 593.8 18.2 592.9 18.2C591.9 18.2 591.1 18.4 590.3 18.7C589.5 19.1 588.8 19.4999 588.2 20.0999C587.6 20.6999 587.2 21.3999 586.8 22.2999C586.5 23.0999 586.3 23.9999 586.3 24.9999C586.3 25.9999 586.5 26.9 586.8 27.7C587.1 28.5 587.6 29.1999 588.2 29.8999C588.8 30.4999 589.5 30.9999 590.3 31.2999C591.1 31.6999 592 31.7999 592.9 31.7999ZM596.8 29.3999H595.5L593 25.3999H591V29.3999H590V20.7H593.8C595 20.7 595.8 20.8999 596.2 21.2999C596.7 21.6999 596.9 22.2999 596.9 22.9999C596.9 23.3999 596.8 23.7999 596.7 24.0999C596.6 24.3999 596.4 24.5999 596.1 24.7999C595.9 24.9999 595.6 25.1 595.2 25.2C594.9 25.3 594.5 25.2999 594.1 25.3999L596.8 29.3999ZM592.7 24.4999C593 24.4999 593.3 24.4999 593.7 24.4999C594.1 24.4999 594.4 24.4999 594.7 24.3999C595 24.2999 595.3 24.1999 595.5 23.8999C595.7 23.6999 595.8 23.2999 595.8 22.8999C595.8 22.5999 595.7 22.2999 595.6 22.0999C595.5 21.8999 595.3 21.6999 595.1 21.5999C594.9 21.4999 594.7 21.3999 594.4 21.3999C594.1 21.3999 593.9 21.2999 593.6 21.2999H591.1V24.3999H592.7V24.4999Z" fill="#14447A"/>
</svg>
