<svg width="177" height="31" viewBox="0 0 177 31" fill="none" xmlns="http://www.w3.org/2000/svg">
<g clip-path="url(#clip0)">
<path d="M31.2348 21.9288L20.1876 10.9647H42.2826V21.9288H31.2348Z" fill="#C046FF"/>
<path d="M0 0H9.1398L31.2348 21.9288V31H22.095L11.0478 20.0353V31H0V0ZM20.1601 10.9647H31.208V0H20.1601V10.9647ZM57.2939 12.6251V25.7467H53.3305V7.14674H57.4226L67.9233 19.773L68.1032 20.083V7.14674H72.0672V25.7467H68.1294L57.5256 12.9902L57.2939 12.6251ZM86.4021 18.5597H75.759V14.3338H86.4021V18.5597ZM103.11 21.6771H93.4965L91.6852 25.7467H87.2403L96.0528 7.14674H100.42L109.363 25.7467H104.995L103.11 21.6771ZM98.2256 11.1123L95.021 18.2596H101.534L98.2256 11.1123ZM112.008 25.7443V7.14426H121.571C124.5 7.14426 126.679 7.5051 128.11 8.22678C129.54 8.94846 130.255 10.205 130.254 11.9964V12.1266C130.254 13.2922 129.97 14.1879 129.402 14.8137C128.833 15.4394 127.955 15.883 126.765 16.1442C128.11 16.388 129.1 16.822 129.737 17.4462C130.374 18.0703 130.693 19.0181 130.694 20.2895V20.3676C130.694 22.333 129.936 23.72 128.419 24.5284C126.903 25.3369 124.689 25.7414 121.778 25.7418L112.008 25.7443ZM116.043 10.46V14.5818H121.936C123.211 14.5818 124.236 14.4601 125.011 14.2166C125.786 13.9731 126.174 13.4253 126.174 12.573V12.4688C126.174 11.6008 125.838 11.0486 125.166 10.8122C124.494 10.5758 123.374 10.4584 121.806 10.46H116.043ZM116.043 17.8424V22.2512H121.264C121.972 22.2512 122.592 22.2338 123.124 22.1991C123.584 22.1732 124.041 22.1208 124.495 22.0422C125.234 21.9207 125.747 21.699 126.032 21.377C126.317 21.055 126.459 20.6245 126.458 20.0855V20.0074C126.463 19.742 126.424 19.4777 126.342 19.225C126.273 19.0145 126.163 18.8195 126.019 18.6508C125.709 18.3379 125.196 18.1251 124.481 18.0122C123.767 17.8994 122.781 17.8428 121.522 17.8424H116.043ZM134.102 25.7467V7.14674H138.286V21.8073H149.84V25.7467H134.102ZM170.32 25.7467H153.182V7.14674H169.774V10.6683H157.162V14.6363H167.836V18.184H157.162V22.0968H170.317L170.32 25.7467Z" fill="black"/>
<path d="M172.722 9.58081V7.55527H171.879V7.14607H174.008V7.55527H173.167V9.58081H172.722ZM174.471 9.58081V7.14607H174.838L175.734 8.62973L176.63 7.14607H177L177.003 9.58081H176.578V7.99361L175.875 9.18153H175.6L174.9 7.99361V9.58081H174.471Z" fill="black"/>
</g>
<defs>
<clipPath id="clip0">
<rect width="177" height="31" fill="white"/>
</clipPath>
</defs>
</svg>
