<svg width="321" height="97" viewBox="0 0 321 97" fill="none" xmlns="http://www.w3.org/2000/svg">
<path d="M3.89995 20C1.89995 22 0.699951 24.8 0.699951 27.6V96.5H293.7C296.6 96.5 299.3 95.4 301.3 93.3L317.4 77.2C319.4 75.2 320.6 72.4 320.6 69.6V0.5H27.9C25 0.5 22.3 1.6 20.3 3.7L3.89995 20Z" fill="#00D15F"/>
<path d="M45.6 71.6L23.5 25.5H33.5C33.5 25.5 49.3 58.6 49.7 60.2H49.9C50.3 58.5 66.1 25.5 66.1 25.5H76L53.9 71.7H45.6V71.6Z" fill="white"/>
<path d="M118.8 52.1H83.0001C84.3001 59.6 89.8001 64.3 96.9001 64.3C102.7 64.3 106.6 62 108.5 57.8H117.8C115 66.6 107.1 72.6 96.9001 72.6C83.5001 72.6 73.6001 62.8 73.6001 48.5C73.6001 34.3 83.3001 24.4 96.9001 24.4C109 24.4 119 34.8 119 48.5C119 49.9 119 50.7 118.8 52.1ZM83.1001 44.6H109.6C109 38.3 103.9 32.8 96.9001 32.8C89.8001 32.7 84.5001 37.4 83.1001 44.6Z" fill="white"/>
<path d="M167.9 52.1H132.1C133.4 59.6 138.9 64.3 146 64.3C151.8 64.3 155.7 62 157.6 57.8H166.9C164.1 66.6 156.2 72.6 146 72.6C132.6 72.6 122.7 62.8 122.7 48.5C122.7 34.3 132.4 24.4 146 24.4C158.1 24.4 168.1 34.8 168.1 48.5C168.1 49.9 168.1 50.7 167.9 52.1ZM132.2 44.6H158.7C158.1 38.3 153 32.8 146 32.8C138.9 32.7 133.6 37.4 132.2 44.6Z" fill="white"/>
<path d="M218.1 48.5V71.6H210.1L209.3 64.4C205.8 69.7 199.5 72.6 193.9 72.6C181.3 72.6 171.7 62.5 171.7 48.5C171.7 34.7 182 24.4 195.1 24.4C207.2 24.5 218.1 33.1 218.1 48.5ZM209 48.5C209 38.3 202.3 32.7 195.1 32.7C187.2 32.7 180.8 39 180.8 48.5C180.8 58 186.7 64.3 195.1 64.3C202.2 64.3 209 58.4 209 48.5Z" fill="white"/>
<path d="M224.2 71.6V44.3C224.2 32.8 231.6 24.5 243.1 24.5C252.4 24.5 257.3 30.7 258 32.9H258.2C258.9 30.7 263.8 24.5 273.1 24.5C284.6 24.5 292 32.8 292 44.3V71.6H283V45C283 37.5 279.6 33 272.8 33C266 33 262.6 37.5 262.6 45.2V71.7H253.5V45.2C253.5 37.5 250.1 33 243.3 33C236.5 33 233.1 37.5 233.1 45V71.6H224.2Z" fill="white"/>
</svg>
